<svg id="Layer_1" data-name="Layer 1" xmlns="http://www.w3.org/2000/svg" viewBox="0 0 679.44 970.47"><defs><style>.cls-1,.cls-8{fill:#f6d2a2;}.cls-1,.cls-10,.cls-2,.cls-4,.cls-5,.cls-7,.cls-8,.cls-9{stroke:#000;}.cls-1,.cls-10,.cls-12,.cls-16,.cls-2,.cls-20,.cls-21,.cls-22,.cls-23,.cls-24,.cls-25,.cls-3,.cls-4,.cls-5,.cls-7,.cls-8,.cls-9{stroke-miterlimit:10;}.cls-1,.cls-12,.cls-4,.cls-5,.cls-9{stroke-width:3px;}.cls-2{fill:#a2ddf4;}.cls-16,.cls-2,.cls-3,.cls-8{stroke-width:2px;}.cls-12,.cls-25,.cls-3{fill:#ffec40;}.cls-12,.cls-16,.cls-25,.cls-3{stroke:#f98935;}.cls-4{fill:#f30014;}.cls-5{fill:#fc1922;}.cls-6{fill:#af0e0e;}.cls-20,.cls-21,.cls-22,.cls-24,.cls-7{fill:none;}.cls-7{stroke-width:7px;}.cls-11,.cls-16,.cls-9{fill:#fff;}.cls-13{fill:#b20d0d;}.cls-14{fill:#ffd97b;}.cls-15{fill:#ffe6ae;}.cls-17{fill:#ffea71;}.cls-18{fill:#ffeb88;}.cls-19{fill:#ffeea9;}.cls-20{stroke:#ffdc31;}.cls-20,.cls-21,.cls-22,.cls-23,.cls-24{stroke-width:11px;}.cls-21{stroke:#ffec40;}.cls-22{stroke:#ffeb78;}.cls-23{fill:#fff9dc;stroke:#ffef8f;}.cls-24{stroke:#fff294;}</style></defs><title>kataras-logo</title><g id="Layer_2" data-name="Layer 2"><path class="cls-1" d="M155.95,868.09s-37.35,1.76-59.08,45.35c0,0-8.94,19,7.8,24.43l15.85-17.14s-25.7,13.17-7.45,28.76c14.33,12.25,33.21-8.46,49.1-22.63,22.5-20.07,26.42-27.45,19.87-40Z" transform="translate(-7.4 -6.03)"/><path class="cls-1" d="M540.35,868.86s37.34,1.88,58.93,45.54c0,0,8.88,19-7.88,24.4l-15.8-17.19s25.65,13.25,7.36,28.79c-14.37,12.21-33.18-8.56-49-22.79-22.43-20.14-26.33-27.53-19.74-40Z" transform="translate(-7.4 -6.03)"/><path class="cls-2" d="M143,114.53s-27.22-23.85-62.79-8.72c-20.21,8.6-34.52,27-39.44,48.45-5.07,22.06,1.74,54.26,43.63,63.57l24.1-52.21Z" transform="translate(-7.4 -6.03)"/><path class="cls-2" d="M537.34,102.48s27.22-23.85,62.79-8.72c20.21,8.6,34.52,27,39.44,48.45,5.07,22.06-1.74,54.26-43.63,63.57l-24.1-52.21Z" transform="translate(-7.4 -6.03)"/><path class="cls-3" d="M608.55,108.19l-2-30.93,36.15,16.07S638.65,61.2,626.6,13c0,0,36.15,64.26,28.12,104.43L620.07,96.57,621.44,113Z" transform="translate(-7.4 -6.03)"/><path class="cls-3" d="M67.43,120.24l2-30.93L33.32,105.38s4-32.13,16.07-80.33c0,0-36.15,64.26-28.12,104.43l34.64-20.86-1.37,16.46Z" transform="translate(-7.4 -6.03)"/><path class="cls-3" d="M548.28,119.44,533.5,106.5s16.58-27.26,62.87-14.19,71.13,93.19,3,112.64l-10.18-13.74s57.46-9.52,29.35-61.73S548.28,119.44,548.28,119.44Z" transform="translate(-7.4 -6.03)"/><path class="cls-3" d="M132.11,131.49l11.39-14S130.31,91.29,84,104.36,13.5,199.5,83.5,217.5l7.67-14.24s-57.46-9.52-29.35-61.73S132.11,131.49,132.11,131.49Z" transform="translate(-7.4 -6.03)"/><path d="M118.51,147.55s-24.1-24.1-40.16,0c-11.14,16.71,0,32.13,16.07,36.15S118.51,147.55,118.51,147.55Z" transform="translate(-7.4 -6.03)"/><path d="M563.86,139.52s24.1-24.1,40.16,0c11.14,16.71,0,32.13-16.07,36.15S563.86,139.52,563.86,139.52Z" transform="translate(-7.4 -6.03)"/><path class="cls-2" d="M351.47,47.14s140.58-4,188.78,60.25c0,0,56.23,56.23,62.26,114.47,0,0,27.81,107.26,20.21,211.16-.08,1.14-.12,2.29-.1,3.44l4,247.3s-4,136.56-84.35,196.81-192.79,52.21-192.79,52.21-140.58,4-200.82-52.21c-55-51.35-71.51-101-74-185.71A293.27,293.27,0,0,1,76.9,650c3.34-26.73,8.61-73.6,7.47-94.79-8-148.61-10-235-10-235S66.3,260,92.4,193.74C116.5,137.51,154.66,55.17,351.47,47.14Z" transform="translate(-7.4 -6.03)"/><path class="cls-4" d="M624.59,609.45c.07,3,1.51,68-.09,84.05-4,40-18.92,139.57-87,191-74.74,56.46-174.59,48.4-181,48-.23,0,.23,0,0,0-7.61.16-150.71,1.92-207-51-52.52-49.37-72.47-100-75-181-.44-14,.91-41.19,3-55,4.49-29.7,7-45.12,7-67,0-79.89-4.56-143-7-181-.24-3.76-8.23-112.51-3-99C122.7,423,241.1,400.64,331.39,484.94c6.25,5.83,13,5.23,18.73-.4,97.75-96,239.29-83.56,263.39-200,1-4.61,9.83,91.3,10,96Z" transform="translate(-7.4 -6.03)"/><path class="cls-5" d="M335.4,264s173,107.1,273.18,23.52c2.58-2.15,5.05-8.4,4.42-10.55-8-27,0-99-82-178-84-81-324.7-63.36-397,25C73.21,198.3,74.09,269.61,74.2,292.95a17.68,17.68,0,0,0,6.33,13.53C99.42,322.16,165.71,355.41,335.4,264Z" transform="translate(-7.4 -6.03)"/><path class="cls-6" d="M128,137C70,216,77,252,73,296c-.29,3.22,3.13,5.84,5.35,8.2,12.22,13,64.26,56.23,233-28.12C243,260,231,264,206.87,252c-10.16-5.08-28.12-28.12-16.07-52.21,5.28-10.56,18.62-19.48,30.22-28.17,13.52-10.13,62.16-28.06,50.11-48.15-21.25-35.42-88.36-20.08-106.53,9.94C223.57,53.74,411.85,57,448,61c-20.08-8-54-12-66-12-4,0-15-1-19-1-10.59,0-20.15-1.46-55.71,3.16C193,66,148.17,109.53,128,137Z" transform="translate(-7.4 -6.03)"/><path class="cls-7" d="M351.47,47.14s140.58-4,188.78,60.25c0,0,55.51,55.51,62.13,113.34a16.86,16.86,0,0,0,.39,2.18c2.82,11.29,27.11,112.2,19.95,210.11-.08,1.14-.12,2.29-.1,3.44l4,247.3s-4,136.56-84.35,196.81-192.79,52.21-192.79,52.21-140.58,4-200.82-52.21c-55-51.35-71-101-74-185.71C74,676,75,664.88,76.9,650c3.34-26.73,8.61-73.6,7.47-94.79-8-148.61-10-235-10-235S66.3,260,92.4,193.74C116.5,137.51,154.66,55.17,351.47,47.14Z" transform="translate(-7.4 -6.03)"/><path class="cls-8" d="M80.19,493.46s-35-4.5-59.07,27.63c0,0-12,12,8,16.07l8-4s-20.08,8-4,20.08,48.2-24.1,48.2-24.1Z" transform="translate(-7.4 -6.03)"/><path class="cls-8" d="M623.18,489.44s35-4.5,59.07,27.63c0,0,12,12-8,16.07l-8-4s20.08,8,4,20.08S622,525.1,622,525.1Z" transform="translate(-7.4 -6.03)"/><path class="cls-9" d="M229,109.4s-77.46,8.1-82.34,78.32S214.91,264,231,264c29.24,0,84.35-20.08,84.35-76.31C315.32,187.72,317.33,113.41,229,109.4Z" transform="translate(-7.4 -6.03)"/><path class="cls-9" d="M470,105.38c-14-5.74-41.84-.78-56.23,4-12,4-52.21,28.12-52.21,68.28,0,72.3,66.27,78.32,82.34,78.32,29.24,0,82.34-18.07,82.34-74.31C526.19,181.69,526.5,128.5,470,105.38Z" transform="translate(-7.4 -6.03)"/><ellipse class="cls-10" cx="205.44" cy="182.68" rx="24.1" ry="28.12"/><ellipse class="cls-10" cx="410.28" cy="178.66" rx="24.1" ry="28.12"/><ellipse class="cls-11" cx="214.47" cy="194.73" rx="7.03" ry="8.03"/><ellipse class="cls-11" cx="419.31" cy="186.7" rx="7.03" ry="8.03"/><path class="cls-9" d="M302.86,320.94s-1.59,45.51,18.49,45.51,20.08-20.08,20.08-20.08V306.2H301.26Z" transform="translate(-7.4 -6.03)"/><path class="cls-9" d="M343,320.94s-5.61,45.51,18.49,45.51c20.08,0,20.08-20.08,20.08-20.08V306.2H341.43Z" transform="translate(-7.4 -6.03)"/><path class="cls-1" d="M353.48,258c-1.94,0-9.47-.17-11.41-.29-13.24-.85-60.89-1-60.89,40.46,0,48.2,44.18,8,60.25,8s36.15,16.07,52.21,12,20.08-8,20.08-28.12C413.72,270.83,381.59,258,353.48,258Z" transform="translate(-7.4 -6.03)"/><path d="M377.58,256c2,12-14.39,22.09-32.13,22.09s-34.14-2-34.14-22.09c0-12.2,22.42-24.1,40.16-24.1S375.57,244,377.58,256Z" transform="translate(-7.4 -6.03)"/><path class="cls-12" d="M124.12,874.88s18.54,18.54,55.62,40.79L124.12,975H109.29V960.17L83.33,975H9.17l3.71-22.25,63-26Z" transform="translate(-7.4 -6.03)"/><path class="cls-12" d="M570.17,873s-18.6,18.48-55.75,40.61l55.43,59.51,14.83,0,0-14.83,25.91,14.92,74.16.24-3.64-22.26-63-26.16Z" transform="translate(-7.4 -6.03)"/><path class="cls-13" d="M339.42,513.05s-20.08-36.15-140.58-72.3S90.4,356.41,90.4,356.41s-12,88.36,8,116.48c0,0-10.43-4.79-12-8a40,40,0,0,1-4-16.07l-4-112.46c-.09-1.79-5-38-4.35-36.33,7.49,18.47,37.39,82.18,98.73,104.84,86.35,31.9,138.57,60.08,166.68,84.15,0,0,32.13-23.32,78.32-53.85,0,0,116.7-52.33,119.6-57.5s59.13-26.13,75.2-87.94c0,0,18.32,100.85,3.46,160.3-4,16-19.53,30.92-15.51,22.89,19.81-39.63,11.37-111.85,8-128.53,0,0-53,58.45-100.41,80.33C455.9,448.79,435.81,432.72,339.42,513.05Z" transform="translate(-7.4 -6.03)"/><path d="M359.5,497a152.76,152.76,0,0,1,17.62-15.76c1.56-1.2,3.13-2.4,4.72-3.56l4.83-3.43c1.6-1.16,3.29-2.18,4.93-3.27l2.48-1.61,2.52-1.55c3.37-2.06,6.82-4,10.29-5.88,1.74-.93,3.53-1.78,5.29-2.67l2.65-1.32c.89-.42,1.81-.8,2.71-1.2,1.81-.79,3.61-1.6,5.43-2.36l5.55-2.09,2.79-1c.94-.29,1.88-.6,2.83-.87,1.89-.56,3.78-1.12,5.69-1.62-1.75.92-3.51,1.79-5.28,2.65l-2.65,1.27-2.6,1.37-5.22,2.66c-1.71,1-3.44,1.85-5.15,2.78-6.84,3.75-13.63,7.57-20.24,11.68l-2.51,1.49-2.48,1.55-4.94,3.13-4.93,3.16c-1.61,1.09-3.25,2.16-4.9,3.21C372.43,488.07,366,492.5,359.5,497Z" transform="translate(-7.4 -6.03)"/><path d="M317.33,499a220.93,220.93,0,0,0-20.13-15.5c-3.49-2.37-7-4.69-10.59-6.89-1.82-1.06-3.61-2.17-5.41-3.25s-3.69-2-5.53-3a222.58,222.58,0,0,0-22.79-10.84c-3.87-1.69-7.85-3.08-11.83-4.56-2-.82-4-1.38-6-2.06s-4-1.34-6.06-2.06c2.11.29,4.22.63,6.33,1s4.23.7,6.3,1.25l6.23,1.59,1.56.41,1.53.51,3.05,1c2,.7,4.11,1.28,6.07,2.15l6,2.44c1,.38,2,.86,2.93,1.33l2.9,1.41c1.94.93,3.88,1.86,5.74,2.93s3.76,2.09,5.6,3.19,3.66,2.26,5.46,3.42c3.54,2.43,7.09,4.86,10.42,7.58A107.25,107.25,0,0,1,317.33,499Z" transform="translate(-7.4 -6.03)"/><path d="M602.5,489c-4,4-8.31,7.72-12.69,11.34s-8.9,7.05-13.52,10.35a249,249,0,0,1-29,17.86c-20.11,10.56-42,18.1-64.72,20.75a151.27,151.27,0,0,1-17.09,1c-5.69,0-11.39-.1-17.07-.4-11.36-.51-22.68-1.57-34-2.61s-22.58-2.2-33.86-3.12-22.57-1.61-33.82-1.43-22.56,1.13-33.84,2.18-22.55,2.31-33.84,3.45-22.6,2.22-34,2.73c-5.69.24-11.39.34-17.1.13q-4.28-.14-8.56-.6c-2.86-.33-5.67-.76-8.48-1.25a171.1,171.1,0,0,1-32.94-9,142.71,142.71,0,0,1-30.17-15.93,133.85,133.85,0,0,1-25.31-22.79,122.17,122.17,0,0,1-10.18-13.66,91.19,91.19,0,0,1-7.91-15.05,91,91,0,0,0,8.23,14.84,127,127,0,0,0,10.38,13.42,132.87,132.87,0,0,0,25.5,22.2,147.22,147.22,0,0,0,30.07,15.38,169.22,169.22,0,0,0,32.67,8.58c11.1,2,22.4,1.86,33.68,1.27s22.56-1.71,33.83-2.9,22.54-2.49,33.84-3.6,22.64-2.07,34-2.34a309.11,309.11,0,0,1,34.13,1.51c11.32,1,22.6,2.19,33.88,3.32s22.56,2.14,33.85,2.88c5.64.39,11.29.59,16.94.69a148,148,0,0,0,16.87-.84c22.45-2.38,44.2-9.72,64.39-19.85a248.13,248.13,0,0,0,29.17-17.34q7-4.82,13.67-10.09C594,496.51,598.39,492.87,602.5,489Z" transform="translate(-7.4 -6.03)"/><path d="M486,569.28a71.41,71.41,0,0,1,21.69,2.89,108.5,108.5,0,0,1,20.47,8.06c1.61.88,3.2,1.81,4.79,2.71.79.46,1.61.89,2.38,1.38l2.3,1.51c1.52,1,3.06,2,4.56,3.08s2.91,2.23,4.35,3.36l2.16,1.69,2.05,1.83,4.06,3.69c.68.6,1.31,1.27,1.93,1.94l1.88,2q1.87,2,3.68,4-2.15-1.7-4.25-3.43c-1.42-1.13-2.74-2.37-4.21-3.43l-4.33-3.27-2.14-1.65-2.23-1.52c-1.49-1-3-2-4.44-3.07s-3.06-1.89-4.58-2.84l-2.28-1.43c-.77-.47-1.57-.88-2.35-1.32l-4.72-2.59L522,580.5c-1.59-.84-3.28-1.44-4.91-2.2-.82-.36-1.63-.75-2.47-1.08l-2.51-1-2.51-1L507,574.4A109.24,109.24,0,0,0,486,569.28Z" transform="translate(-7.4 -6.03)"/><path d="M207.8,579.33c-5.23,2.77-10.37,5.61-15.43,8.56-2.51,1.51-5,3-7.48,4.58s-4.91,3.15-7.28,4.85-4.74,3.38-7,5.21-4.49,3.69-6.61,5.67a71.91,71.91,0,0,0-11.34,13.3,47.23,47.23,0,0,1,9.68-15,84,84,0,0,1,13.56-11.68,117,117,0,0,1,15.38-9A100.4,100.4,0,0,1,207.8,579.33Z" transform="translate(-7.4 -6.03)"/><path d="M361.51,611.46a390.84,390.84,0,0,1,4.57,60.5,266.81,266.81,0,0,1-1.74,30.39c-.57,5.05-1.48,10.1-2.24,15-.39,2.48-.67,5-1,7.46s-.55,5-.76,7.5a351.71,351.71,0,0,0,.17,60.3q1.27,15.06,3.53,30t5.53,29.78a347,347,0,0,1-11.41-59.59c-1.08-10.08-1.67-20.21-1.88-30.36a302.39,302.39,0,0,1,1.1-30.43c.22-2.53.54-5.05.81-7.58s.65-5,1.06-7.55c.81-5.05,1.7-10,2.35-14.93a295.57,295.57,0,0,0,2.22-30.08c.26-10.07.16-20.16-.24-30.24S362.48,621.52,361.51,611.46Z" transform="translate(-7.4 -6.03)"/><path class="cls-13" d="M610.53,499s30.12,218.9-34.14,303.25c0,0,27.23-52.11,16.07-152.63-4-36.15-20.08-44.18-44.18-68.28-26.79-26.79-148-24.75-160.66-12-8,8-16.07,20.08-10,46.19,9.43,40.86-14.06,94.39-14.06,94.39s12-52.21-8-108.45c-14.12-39.53-31.31-39.66-61.87-41.27-26.32-1.39-63.93,2.67-114.86,21.19-88.36,32.13-64.26,200.82-64.26,200.82S90.4,713.88,94.41,677.73c2.84-25.58,12-108.45,8-136.56l-8-60.25s32.13,52.21,84.35,60.25c10.18,1.57,41.26,15.32,100.41,8,22.08-2.72,56.23-4,80.33-4,47.27,0,92.58,12.74,128.53,8C555.64,544.37,610.53,499,610.53,499Z" transform="translate(-7.4 -6.03)"/><polygon class="cls-3" points="71.1 636.47 193.45 737.97 173.37 669.69 342.06 754.04 510.76 673.71 478.62 725.92 618.1 647.47 618.1 685.47 438.46 778.14 466.57 713.87 342.06 798.22 209.52 713.87 225.58 774.12 67.1 684.47 71.1 636.47"/><polygon class="cls-14" points="248.21 707.85 248.21 738 271.16 752.03 271.16 718.87 248.21 707.85"/><path class="cls-15" d="M262.92,717.39,259.09,746s13.16,7.68,12.6,7.86,1.45-32,1.45-32Z" transform="translate(-7.4 -6.03)"/><polygon class="cls-14" points="408.33 723.91 412.35 752.03 392.27 764.08 388.25 731.95 408.33 723.91"/><polygon class="cls-15" points="393.14 729.99 402.06 726.42 406.32 755.65 397.64 760.86 393.14 729.99"/><polygon class="cls-3" points="620.88 526.45 632.45 536.2 647.32 501 635.27 505.01 659.37 480.92 647.32 480.92 663.38 464.85 627.23 488.95 620.88 526.45"/><polygon class="cls-3" points="64.92 530.47 53.36 540.21 38.49 505.01 50.53 509.03 26.44 484.93 38.49 484.93 22.42 468.87 58.57 492.97 64.92 530.47"/><circle class="cls-3" cx="335.04" cy="554.21" r="65.27"/><circle class="cls-16" cx="334.87" cy="554.38" r="50.04"/><polygon class="cls-14" points="330.33 488.63 317.43 490.49 318.87 504.31 331.37 503.36 330.33 488.63"/><polygon class="cls-15" points="320.98 489.9 322.43 503.72 326.9 503.54 325.86 488.81 320.98 489.9"/><polygon class="cls-17" points="46.09 931.12 41.47 967.12 69.17 967.12 69.17 921.89 46.09 931.12"/><polygon class="cls-18" points="50.7 929.27 45.16 967.12 65.47 967.12 65.47 923.73 50.7 929.27"/><polygon class="cls-19" points="53.47 928.35 49.78 967.12 60.86 967.12 60.86 925.58 53.47 928.35"/><polygon class="cls-17" points="636.04 930.42 640.54 966.44 612.84 966.35 612.99 921.11 636.04 930.42"/><polygon class="cls-18" points="631.43 928.56 636.84 966.43 616.53 966.36 616.67 922.97 631.43 928.56"/><polygon class="cls-19" points="628.66 927.63 632.23 966.41 621.15 966.38 621.28 924.83 628.66 927.63"/></g><g id="a"><path class="cls-20" d="M315.5,500.5h114a5,5,0,0,1,5,5v50a65,65,0,0,1-65,65h-114a5,5,0,0,1-5-5v-50A65,65,0,0,1,315.5,500.5Z" transform="translate(-7.4 -6.03)"/><circle class="cls-21" cx="335.1" cy="554.47" r="60"/><circle class="cls-22" cx="335.1" cy="554.47" r="44"/><circle class="cls-23" cx="335.1" cy="554.47" r="39"/><path class="cls-24" d="M343,546.5A14.5,14.5,0,1,1,328.5,561,14.5,14.5,0,0,1,343,546.5Z" transform="translate(-7.4 -6.03)"/></g><polygon class="cls-25" points="384.24 471.9 299.9 552.23 328.01 552.23 263.75 636.58 372.19 536.16 340.06 536.16 384.24 471.9"/></svg>