<svg xmlns="http://www.w3.org/2000/svg" width="305" height="100" viewBox="0 0 305 100">
  <g fill="none" fill-rule="evenodd">
    <path fill="#1675A3" d="M0,50 C0,22.39 22.38,0 50,0 L100,0 L100,50 C100,77.61 77.62,100 50,100 L0,100 L0,50 Z M80.83,49.92 C80.83,32.84 67.00,19 49.92,19 C32.84,19 19,32.84 19,49.92 C19,66.99 32.84,80.83 49.92,80.83 C66.99,80.83 80.83,67.00 80.83,49.92 Z M69.17,50.08 C69.17,39.54 60.63,31 50.08,31 C39.54,31 31,39.54 31,50.08 C31,60.62 39.54,69.17 50.08,69.17 C60.62,69.17 69.17,60.63 69.17,50.08 Z"/>
    <path fill="#4A4A4A" d="M138.33,10.50 L138.33,81.17 C138.33,85.39 134.90,88.83 130.67,88.83 L123,88.83 L123,18.17 C123,13.94 126.44,10.50 130.67,10.50 L138.33,10.50 Z M209.67,80 C212.70,84.24 210.37,88.83 205.17,88.83 L196.33,88.83 L171.83,54.33 L171.83,44.67 L174.33,44.17 C186.86,42.24 192.53,37.88 192.50,31.33 C192.53,26.34 190.11,24.24 184,24.17 L166.33,24.17 L166.33,81.17 C166.36,85.40 162.93,88.83 158.67,88.83 L151,88.83 L151,18.50 C151,14.08 154.59,10.50 159,10.50 L184.83,10.50 C200.17,10.50 208.49,17.50 208.50,30.83 C208.49,40.76 202.15,48.23 190,53.17 L209.67,80 Z M233.83,10.50 L233.83,81.17 C233.83,85.39 230.40,88.83 226.17,88.83 L218.50,88.83 L218.50,18.17 C218.50,13.94 221.94,10.50 226.17,10.50 L233.83,10.50 Z M245.50,78.33 L245.50,69.50 L249.50,70.83 C256.80,73.45 264.66,74.74 273.17,74.67 C284.80,74.74 289.80,71.73 289.83,65.17 C289.80,59.39 285.96,56.46 278,56.50 L268.67,56.50 C252.01,56.46 243,48.64 243,33.67 C243,17.99 254.22,10 275.17,10 C276.36,10 277.69,10.04 279,10.17 C281.92,10.30 284.94,10.64 288,11.17 C289.63,11.33 291.15,11.59 292.50,11.83 C293.03,11.93 293.47,12.02 293.83,12.17 C294.08,12.14 294.25,12.17 294.33,12.17 C298.40,12.94 301.64,16.83 301.67,21 L301.67,30 L297.67,28.50 C290.68,25.88 283.19,24.59 275.17,24.67 C262.68,24.59 257.37,27.50 257.33,33.67 C257.37,39.45 261.09,42.37 268.67,42.33 L278,42.33 C295.02,42.37 304.17,50.17 304.17,65.17 C304.17,81.12 293.32,89.33 273.17,89.33 C271.71,89.33 270.21,89.28 268.67,89.17 C265.74,89.00 262.69,88.66 259.50,88.17 C257.87,87.98 256.25,87.72 254.83,87.50 C254.26,87.37 253.79,87.29 253.33,87.17 C253.16,87.17 253.00,87.14 252.83,87.17 C248.76,86.37 245.53,82.50 245.50,78.33 Z"/>
  </g>
</svg>
