<svg xmlns="http://www.w3.org/2000/svg" width="1825" height="600" viewBox="0 0 1825 600">
  <g fill="#000000" fill-rule="evenodd">
    <path d="M0 300C0 134.31 134.28 0 300 0L600 0 600 300C600 465.69 465.72 600 300 600L0 600 0 300zM485 299.50C485 197.05 401.97 114 299.50 114 197.05 114 114 197.03 114 299.50 114 401.95 197.03 485 299.50 485 401.95 485 485 401.97 485 299.50zM415 300.50C415 237.26 363.75 186 300.50 186 237.26 186 186 237.25 186 300.50 186 363.74 237.25 415 300.50 415 363.74 415 415 363.75 415 300.50zM830 63L830 487C830 512.37 809.38 533 784 533L738 533 738 109C738 83.63 758.62 63 784 63L830 63zM1258 480C1276.19 505.42 1262.19 533 1231 533L1178 533 1031 326 1031 268 1046 265C1121.17 253.41 1155.16 227.30 1155 188 1155.16 158.03 1140.68 145.45 1104 145L998 145 998 487C998.17 512.40 977.57 533 952 533L906 533 906 111C906 84.49 927.53 63 954 63L1109 63C1201.00 63 1250.97 105.00 1251 185 1250.97 244.57 1212.92 289.36 1140 319L1258 480zM1403 63L1403 487C1403 512.37 1382.38 533 1357 533L1311 533 1311 109C1311 83.63 1331.62 63 1357 63L1403 63zM1473 470L1473 417 1497 425C1540.80 440.71 1587.95 448.47 1639 448 1708.79 448.47 1738.79 430.39 1739 391 1738.79 356.34 1715.73 338.77 1668 339L1612 339C1512.03 338.77 1458 291.87 1458 202 1458 107.97 1525.32 60 1651 60 1658.15 60 1666.12 60.27 1674 61 1691.53 61.83 1709.65 63.85 1728 67 1737.76 68.01 1746.90 69.54 1755 71 1758.18 71.61 1760.81 72.11 1763 73 1764.50 72.84 1765.48 73.04 1766 73 1790.43 77.65 1809.82 100.96 1810 126L1810 180 1786 171C1744.05 155.26 1699.11 147.53 1651 148 1576.05 147.53 1544.21 165.00 1544 202 1544.21 236.73 1566.53 254.20 1612 254L1668 254C1770.10 254.20 1825 301.02 1825 391 1825 486.71 1759.95 536 1639 536 1630.29 536 1621.26 535.68 1612 535 1594.47 533.98 1576.11 531.98 1557 529 1547.20 527.88 1537.51 526.33 1529 525 1525.54 524.23 1522.75 523.73 1520 523 1518.99 523.02 1518.01 522.83 1517 523 1492.58 518.21 1473.18 495.03 1473 470z"/>
  </g>
</svg>
