<svg width="1825px" height="600px" viewBox="0 0 1825 600" version="1.1" xmlns="http://www.w3.org/2000/svg" xmlns:xlink="http://www.w3.org/1999/xlink">
    <desc>Iris Brand designed by konhondros</desc>
    <defs></defs>
    <g id="iris-brand" stroke="none" stroke-width="1" fill="none" fill-rule="evenodd">
        <path d="M0,300 C0,134.31 134.28,0 300,0 L600,0 L600,300 C600,465.69 465.72,600 300,600 L0,600 L0,300 Z M485,299.50 C485,197.05 401.97,114 299.50,114 C197.05,114 114,197.03 114,299.50 C114,401.95 197.03,485 299.50,485 C401.95,485 485,401.97 485,299.50 Z M415,300.50 C415,237.26 363.75,186 300.50,186 C237.26,186 186,237.25 186,300.50 C186,363.74 237.25,415 300.50,415 C363.74,415 415,363.75 415,300.50 Z" id="Combined-Shape" fill="#000000"></path>
        <path d="M830,63 L830,486.93 C830,512.37 809.38,533 784,533 L738,533 L738,109.07 C738,83.63 758.62,63 784,63 L830,63 Z M1257.75,480.12 C1276.19,505.42 1262.19,533 1230.86,533 L1177.51,533 L1030.73,325.58 L1030.73,267.75 L1045.92,265.34 C1121.17,253.41 1155.16,227.30 1155.16,187.53 C1155.16,158.03 1140.68,145.45 1103.98,145.45 L998.17,145.45 L998.17,533 L954.06,533 C927.53,533 906,511.49 906,484.99 L906,111.01 C906,84.49 927.53,63 954.06,63 L1109.13,63 C1201.00,63 1250.97,105.00 1250.97,185.10 C1250.97,244.57 1212.92,289.36 1140.42,319.05 L1257.75,480.12 Z M1403,63 L1403,486.93 C1403,512.37 1382.38,533 1357,533 L1311,533 L1311,109.07 C1311,83.63 1331.62,63 1357,63 L1403,63 Z M1473.18,469.81 L1473.18,416.68 L1497.24,425.23 C1540.80,440.71 1587.95,448.47 1638.77,448.47 C1708.79,448.47 1738.79,430.39 1738.79,390.55 C1738.79,356.34 1715.73,338.77 1668.22,338.77 L1612.35,338.77 C1512.03,338.77 1458,291.87 1458,202.42 C1458,107.97 1525.32,60 1650.61,60 C1658.15,60 1666.12,60.27 1674.45,60.78 C1691.53,61.83 1709.65,63.85 1728.09,66.58 C1737.76,68.01 1746.90,69.54 1755.25,71.07 C1758.18,71.61 1760.81,72.11 1763.10,72.56 C1764.50,72.84 1765.48,73.04 1765.61,73.07 C1790.43,77.65 1809.82,100.96 1809.82,126.19 L1809.82,179.72 L1785.51,170.68 C1744.05,155.26 1699.11,147.53 1650.61,147.53 C1576.05,147.53 1544.21,165.00 1544.21,202.42 C1544.21,236.73 1566.53,254.20 1612.35,254.20 L1668.22,254.20 C1770.10,254.20 1825,301.02 1825,390.55 C1825,486.71 1759.95,536 1638.77,536 C1630.29,536 1621.26,535.68 1611.76,535.08 C1594.47,533.98 1576.11,531.98 1557.42,529.33 C1547.20,527.88 1537.51,526.33 1528.65,524.78 C1525.54,524.23 1522.75,523.73 1520.32,523.27 C1518.99,523.02 1518.01,522.83 1517.41,522.71 C1492.58,518.21 1473.18,495.03 1473.18,469.81 Z" id="text" fill="#000000" fill-rule="nonzero"></path>
    </g>
</svg>