<svg width="305px" height="100px" viewBox="332 329 305 100" version="1.1" xmlns="http://www.w3.org/2000/svg" xmlns:xlink="http://www.w3.org/1999/xlink">
    <desc>Iris Brand designed by konhondros</desc>
    <defs></defs>
    <g id="iris-brand" stroke="none" stroke-width="1" fill="none" fill-rule="evenodd" transform="translate(332.000000, 329.000000)">
        <path d="M0,50 C0,22.39 22.38,0 50,0 L100,0 L100,50 C100,77.61 77.62,100 50,100 L0,100 L0,50 Z M19,49.90 C19,32.83 32.83,19 49.90,19 L49.90,19 C66.97,19 80.80,32.83 80.80,49.90 L80.80,49.90 C80.80,66.97 66.97,80.80 49.90,80.80 L49.90,80.80 C32.83,80.80 19,66.97 19,49.90 L19,49.90 Z M31,50.09 C31,39.55 39.55,31 50.09,31 L50.09,31 C60.64,31 69.19,39.55 69.19,50.09 L69.19,50.09 C69.19,60.64 60.64,69.19 50.09,69.19 L50.09,69.19 C39.55,69.19 31,60.64 31,50.09 L31,50.09 Z" id="logo" fill="#1675A3"></path>
        <path d="M138.35,10.51 L138.35,81.12 C138.35,85.35 134.91,88.79 130.68,88.79 L123,88.79 L123,18.18 C123,13.94 126.44,10.51 130.68,10.51 L138.35,10.51 Z M209.65,79.98 C212.72,84.20 210.38,88.79 205.17,88.79 L196.28,88.79 L171.83,54.24 L171.83,44.61 L174.36,44.21 C186.90,42.22 192.56,37.87 192.56,31.25 C192.56,26.33 190.14,24.24 184.03,24.24 L166.41,24.24 L166.41,88.79 L159.06,88.79 C154.64,88.79 151.06,85.21 151.06,80.79 L151.06,18.50 C151.06,14.09 154.64,10.51 159.06,10.51 L184.89,10.51 C200.19,10.51 208.51,17.50 208.51,30.84 C208.51,40.75 202.18,48.21 190.10,53.15 L209.65,79.98 Z M233.89,10.51 L233.89,81.12 C233.89,85.35 230.45,88.79 226.21,88.79 L218.54,88.79 L218.54,18.18 C218.54,13.94 221.98,10.51 226.21,10.51 L233.89,10.51 Z M245.58,78.27 L245.58,69.42 L249.59,70.84 C256.84,73.42 264.69,74.71 273.15,74.71 C284.81,74.71 289.80,71.70 289.80,65.07 C289.80,59.37 285.96,56.44 278.05,56.44 L268.75,56.44 C252.05,56.44 243.06,48.63 243.06,33.73 C243.06,17.99 254.26,10 275.12,10 C276.38,10 277.70,10.04 279.09,10.13 C281.93,10.30 284.95,10.64 288.02,11.10 C289.63,11.33 291.15,11.59 292.54,11.84 C293.03,11.93 293.47,12.02 293.85,12.09 C294.08,12.14 294.25,12.17 294.27,12.18 C298.40,12.94 301.63,16.82 301.63,21.03 L301.63,29.94 L297.58,28.44 C290.68,25.87 283.20,24.58 275.12,24.58 C262.71,24.58 257.41,27.49 257.41,33.73 C257.41,39.44 261.12,42.35 268.75,42.35 L278.05,42.35 C295.01,42.35 304.15,50.15 304.15,65.07 C304.15,81.09 293.32,89.30 273.15,89.30 C271.74,89.30 270.24,89.24 268.65,89.14 C265.77,88.96 262.72,88.63 259.61,88.19 C257.90,87.94 256.29,87.69 254.82,87.43 C254.30,87.34 253.84,87.25 253.43,87.18 C253.21,87.13 253.05,87.10 252.95,87.08 C248.81,86.33 245.58,82.47 245.58,78.27 Z" id="text" fill="#4A4A4A" fill-rule="nonzero"></path>
    </g>
</svg>
