<?xml version="1.0" encoding="utf-8"?><svg version="1.1" id="Layer_1" xmlns="http://www.w3.org/2000/svg" xmlns:xlink="http://www.w3.org/1999/xlink" x="0px" y="0px" viewBox="0 0 55.2 38.4" style="enable-background:new 0 0 55.2 38.4" xml:space="preserve"><style type="text/css">.st0{fill:#009B3A;} .st1{fill:#FEDF00;} .st2{fill:#002776;} .st3{fill:#FFFFFF;} .st4{fill-rule:evenodd;clip-rule:evenodd;fill:#009B3A;}</style><g><path class="st0" d="M3.03,0h49.13c1.67,0,3.03,1.36,3.03,3.03v32.33c0,1.67-1.36,3.03-3.03,3.03H3.03C1.36,38.4,0,37.04,0,35.37 V3.03C0,1.36,1.36,0,3.03,0L3.03,0z"/><polygon class="st1" points="4.24,19.2 27.6,34.11 50.96,19.2 27.6,4.29 4.24,19.2"/><path class="st2" d="M27.6,9.35c5.44,0,9.85,4.41,9.85,9.85c0,5.44-4.41,9.85-9.85,9.85c-5.44,0-9.85-4.41-9.85-9.85 C17.75,13.76,22.16,9.35,27.6,9.35L27.6,9.35z"/><path class="st3" d="M18.59,15.22c1.1-0.16,2.23-0.24,3.38-0.24c5.86,0,11.22,2.11,15.38,5.6c-0.07,0.54-0.19,1.06-0.35,1.56 c-3.98-3.58-9.25-5.76-15.03-5.76c-1.33,0-2.64,0.12-3.91,0.34C18.2,16.2,18.38,15.7,18.59,15.22L18.59,15.22z"/><path class="st4" d="M19.18,16.15c0.14-0.02,0.23-0.16,0.21-0.32c-0.02-0.16-0.15-0.28-0.28-0.26c-0.13,0.02-0.23,0.16-0.21,0.32 C18.92,16.05,19.04,16.16,19.18,16.15L19.18,16.15z M19.2,16.32c0.23-0.03,0.4-0.26,0.36-0.52c-0.03-0.26-0.24-0.44-0.48-0.41 c-0.23,0.03-0.39,0.26-0.36,0.52C18.76,16.16,18.97,16.35,19.2,16.32L19.2,16.32z"/><path class="st4" d="M20.1,15.7l0.36-0.02c0.07-0.01,0.12-0.06,0.11-0.13c0-0.07-0.06-0.12-0.13-0.11l-0.36,0.03L20.1,15.7 L20.1,15.7z M19.96,16.24l0.17-0.01l-0.02-0.35l0.37-0.03c0.16-0.01,0.29-0.15,0.27-0.31c-0.01-0.16-0.15-0.28-0.31-0.27 l-0.53,0.04L19.96,16.24L19.96,16.24z"/><path class="st0" d="M20.76,16.18c-0.01-0.13-0.03-0.43-0.23-0.41l-0.26,0.02c0.29-0.02,0.31,0.27,0.33,0.41L20.76,16.18 L20.76,16.18z"/><path class="st4" d="M21.32,15.98l0.25,0c0.14,0,0.25-0.12,0.25-0.26v-0.08c0-0.14-0.12-0.25-0.26-0.25l-0.26,0.01L21.32,15.98 L21.32,15.98z M21.15,16.16l0.44-0.01c0.22-0.01,0.4-0.19,0.4-0.41l0-0.13c0-0.22-0.19-0.4-0.41-0.4l-0.44,0.01L21.15,16.16 L21.15,16.16z"/><polygon class="st0" points="22.34,16.15 23.19,16.18 23.19,16.01 22.51,15.98 22.52,15.74 23.05,15.76 23.06,15.6 22.52,15.58 22.53,15.39 23.17,15.42 23.18,15.24 22.38,15.21 22.34,16.15"/><polygon class="st0" points="23.53,16.2 23.69,16.22 23.75,15.57 23.88,16.23 24.03,16.25 24.27,15.62 24.21,16.26 24.37,16.27 24.46,15.34 24.22,15.32 23.98,15.94 23.85,15.29 23.62,15.27 23.53,16.2"/><polygon class="st0" points="25.48,16.42 26.17,16.54 26.2,16.38 25.66,16.29 25.7,16.08 26.13,16.15 26.16,16 25.73,15.92 25.75,15.77 26.27,15.86 26.3,15.7 25.62,15.59 25.48,16.42"/><path class="st4" d="M27.56,16.31l0.35,0.09c0.06,0.01,0.13-0.02,0.15-0.09c0.01-0.06-0.02-0.13-0.09-0.15l-0.35-0.09L27.56,16.31 L27.56,16.31z M27.26,16.77l0.17,0.04l0.09-0.34l0.36,0.09c0.16,0.04,0.32-0.05,0.36-0.21c0.04-0.16-0.05-0.32-0.21-0.36 l-0.52-0.14L27.26,16.77L27.26,16.77z"/><path class="st4" d="M28.73,16.63l0.34,0.11c0.06,0.02,0.13-0.01,0.15-0.08c0.02-0.06-0.01-0.13-0.08-0.15L28.8,16.4L28.73,16.63 L28.73,16.63z M28.41,17.08l0.17,0.05l0.11-0.33l0.36,0.11c0.15,0.05,0.32-0.04,0.37-0.19c0.05-0.15-0.04-0.32-0.19-0.37 l-0.51-0.16L28.41,17.08L28.41,17.08z"/><path class="st0" d="M29.17,17.32c0.04-0.13,0.13-0.41-0.06-0.47l-0.24-0.08c0.28,0.09,0.19,0.37,0.15,0.5L29.17,17.32L29.17,17.32 z"/><path class="st4" d="M30,17.43c0.13,0.05,0.28-0.04,0.33-0.19c0.06-0.15,0-0.32-0.13-0.36c-0.13-0.05-0.28,0.04-0.33,0.19 C29.81,17.22,29.87,17.38,30,17.43L30,17.43z M29.94,17.59c0.22,0.08,0.47-0.05,0.56-0.29c0.09-0.24-0.01-0.51-0.23-0.59 c-0.22-0.08-0.47,0.05-0.56,0.29C29.62,17.25,29.72,17.51,29.94,17.59L29.94,17.59z"/><path class="st4" d="M31.11,17.88c0.13,0.05,0.28-0.02,0.35-0.17l0,0l0.16,0.07c-0.1,0.24-0.36,0.35-0.57,0.26 c-0.22-0.09-0.31-0.36-0.2-0.6c0.1-0.24,0.36-0.36,0.57-0.26c0.17,0.07,0.26,0.25,0.24,0.44l-0.17-0.08 c-0.01-0.09-0.06-0.17-0.14-0.2c-0.12-0.06-0.28,0.02-0.34,0.17C30.94,17.66,30.98,17.82,31.11,17.88L31.11,17.88z"/><polygon class="st0" points="31.29,17.64 31.62,17.78 31.56,17.9 31.24,17.76 31.29,17.64"/><polygon class="st0" points="31.49,17.72 31.62,17.78 31.43,18.21 31.3,18.15 31.49,17.72"/><path class="st4" d="M32.13,17.96l0.32,0.16c0.06,0.03,0.13,0.01,0.16-0.05c0.03-0.06,0.01-0.13-0.06-0.16l-0.32-0.16L32.13,17.96 L32.13,17.96z M31.74,18.35l0.16,0.08l0.15-0.31l0.33,0.17c0.15,0.07,0.32,0.01,0.4-0.13c0.07-0.15,0.01-0.32-0.13-0.4l-0.48-0.24 L31.74,18.35L31.74,18.35z"/><path class="st0" d="M32.46,18.71c0.06-0.12,0.19-0.38,0.01-0.47l-0.23-0.11c0.26,0.13,0.13,0.4,0.07,0.51L32.46,18.71L32.46,18.71 z"/><polygon class="st0" points="32.81,18.89 33.54,19.31 33.63,19.16 33.03,18.82 33.15,18.61 33.62,18.87 33.69,18.73 33.23,18.47 33.32,18.31 33.88,18.62 33.97,18.47 33.27,18.08 32.81,18.89"/><path class="st0" d="M34.18,19.35c-0.05,0.08,0,0.17,0.11,0.24c0.11,0.07,0.19,0.07,0.22,0.02c0.1-0.16-0.49-0.4-0.31-0.68 c0.16-0.24,0.43-0.05,0.53,0.01c0.1,0.06,0.26,0.23,0.14,0.42l-0.17-0.11c0.05-0.09-0.01-0.17-0.1-0.22 c-0.09-0.05-0.16-0.08-0.21,0c-0.09,0.13,0.49,0.38,0.32,0.66c-0.13,0.21-0.36,0.12-0.52,0.02c-0.13-0.08-0.32-0.28-0.2-0.48 L34.18,19.35L34.18,19.35z"/><path class="st0" d="M35.18,20.02c-0.05,0.08-0.01,0.17,0.1,0.24c0.11,0.08,0.19,0.08,0.22,0.03c0.11-0.16-0.47-0.42-0.27-0.69 c0.17-0.23,0.43-0.03,0.53,0.04c0.1,0.07,0.25,0.25,0.12,0.43l-0.17-0.12c0.06-0.08,0-0.16-0.08-0.23 c-0.08-0.06-0.15-0.09-0.21-0.01c-0.1,0.12,0.47,0.4,0.28,0.67c-0.14,0.2-0.37,0.1-0.51-0.01c-0.13-0.09-0.31-0.3-0.17-0.49 L35.18,20.02L35.18,20.02z"/><path class="st4" d="M36.24,20.96c0.11,0.08,0.28,0.05,0.38-0.08c0.1-0.13,0.1-0.3-0.01-0.38c-0.1-0.09-0.28-0.05-0.37,0.08 C36.13,20.7,36.13,20.88,36.24,20.96L36.24,20.96z M36.13,21.1c0.18,0.15,0.46,0.1,0.62-0.1c0.16-0.2,0.14-0.48-0.04-0.63 c-0.18-0.15-0.46-0.1-0.62,0.1C35.93,20.67,35.95,20.95,36.13,21.1L36.13,21.1z"/><polygon class="st3" points="19.56,17.01 19.43,17.41 19.63,17.48 19.56,17.01"/><polygon class="st3" points="19.56,17.01 19.69,17.41 19.49,17.48 19.56,17.01"/><polygon class="st3" points="19.96,17.3 19.54,17.3 19.54,17.51 19.96,17.3"/><polygon class="st3" points="19.96,17.3 19.62,17.55 19.49,17.38 19.96,17.3"/><polygon class="st3" points="19.16,17.3 19.5,17.55 19.62,17.38 19.16,17.3"/><polygon class="st3" points="19.16,17.3 19.58,17.3 19.58,17.51 19.16,17.3"/><polygon class="st3" points="19.81,17.77 19.68,17.37 19.48,17.44 19.81,17.77"/><polygon class="st3" points="19.81,17.77 19.47,17.53 19.59,17.35 19.81,17.77"/><polygon class="st3" points="19.31,17.77 19.65,17.53 19.53,17.35 19.31,17.77"/><polygon class="st3" points="19.31,17.77 19.44,17.37 19.64,17.44 19.31,17.77"/><polygon class="st3" points="20.43,21.15 20.3,21.55 20.5,21.62 20.43,21.15"/><polygon class="st3" points="20.43,21.15 20.56,21.55 20.36,21.62 20.43,21.15"/><polygon class="st3" points="20.83,21.44 20.41,21.44 20.41,21.65 20.83,21.44"/><polygon class="st3" points="20.83,21.44 20.49,21.69 20.37,21.52 20.83,21.44"/><polygon class="st3" points="20.03,21.44 20.37,21.69 20.5,21.52 20.03,21.44"/><polygon class="st3" points="20.03,21.44 20.45,21.44 20.45,21.65 20.03,21.44"/><polygon class="st3" points="20.68,21.91 20.55,21.51 20.35,21.58 20.68,21.91"/><polygon class="st3" points="20.68,21.91 20.34,21.67 20.46,21.49 20.68,21.91"/><polygon class="st3" points="20.18,21.91 20.52,21.67 20.4,21.49 20.18,21.91"/><polygon class="st3" points="20.18,21.91 20.31,21.51 20.51,21.58 20.18,21.91"/><polygon class="st3" points="19.22,22.11 19.12,22.44 19.28,22.49 19.22,22.11"/><polygon class="st3" points="19.22,22.11 19.33,22.44 19.17,22.49 19.22,22.11"/><polygon class="st3" points="19.56,22.35 19.21,22.35 19.21,22.52 19.56,22.35"/><polygon class="st3" points="19.56,22.35 19.27,22.55 19.17,22.41 19.56,22.35"/><polygon class="st3" points="18.89,22.35 19.18,22.55 19.28,22.41 18.89,22.35"/><polygon class="st3" points="18.89,22.35 19.24,22.35 19.24,22.52 18.89,22.35"/><polygon class="st3" points="19.43,22.74 19.32,22.4 19.15,22.46 19.43,22.74"/><polygon class="st3" points="19.43,22.74 19.15,22.53 19.25,22.39 19.43,22.74"/><polygon class="st3" points="19.02,22.74 19.3,22.53 19.2,22.39 19.02,22.74"/><polygon class="st3" points="19.02,22.74 19.13,22.4 19.29,22.46 19.02,22.74"/><polygon class="st3" points="21.4,20.77 21.33,20.96 21.43,20.99 21.4,20.77"/><polygon class="st3" points="21.4,20.77 21.46,20.96 21.36,20.99 21.4,20.77"/><polygon class="st3" points="21.59,20.91 21.39,20.91 21.39,21.01 21.59,20.91"/><polygon class="st3" points="21.59,20.91 21.42,21.03 21.37,20.95 21.59,20.91"/><polygon class="st3" points="21.2,20.91 21.37,21.03 21.43,20.95 21.2,20.91"/><polygon class="st3" points="21.2,20.91 21.41,20.91 21.41,21.01 21.2,20.91"/><polygon class="st3" points="21.51,21.13 21.45,20.94 21.36,20.97 21.51,21.13"/><polygon class="st3" points="21.51,21.13 21.35,21.01 21.41,20.93 21.51,21.13"/><polygon class="st3" points="21.28,21.13 21.44,21.01 21.38,20.93 21.28,21.13"/><polygon class="st3" points="21.28,21.13 21.34,20.94 21.43,20.97 21.28,21.13"/><polygon class="st3" points="22.48,22.2 22.37,22.53 22.54,22.59 22.48,22.2"/><polygon class="st3" points="22.48,22.2 22.59,22.53 22.42,22.59 22.48,22.2"/><polygon class="st3" points="22.82,22.44 22.46,22.44 22.46,22.62 22.82,22.44"/><polygon class="st3" points="22.82,22.44 22.53,22.65 22.43,22.51 22.82,22.44"/><polygon class="st3" points="22.15,22.44 22.43,22.65 22.53,22.51 22.15,22.44"/><polygon class="st3" points="22.15,22.44 22.5,22.44 22.5,22.62 22.15,22.44"/><polygon class="st3" points="22.69,22.84 22.58,22.5 22.41,22.55 22.69,22.84"/><polygon class="st3" points="22.69,22.84 22.4,22.63 22.51,22.49 22.69,22.84"/><polygon class="st3" points="22.28,22.84 22.56,22.63 22.46,22.49 22.28,22.84"/><polygon class="st3" points="22.28,22.84 22.38,22.5 22.55,22.55 22.28,22.84"/><polygon class="st3" points="22.19,23.25 22.1,23.52 22.23,23.56 22.19,23.25"/><polygon class="st3" points="22.19,23.25 22.27,23.52 22.14,23.56 22.19,23.25"/><polygon class="st3" points="22.45,23.44 22.17,23.44 22.17,23.58 22.45,23.44"/><polygon class="st3" points="22.45,23.44 22.23,23.61 22.14,23.49 22.45,23.44"/><polygon class="st3" points="21.92,23.44 22.15,23.61 22.23,23.49 21.92,23.44"/><polygon class="st3" points="21.92,23.44 22.2,23.44 22.2,23.58 21.92,23.44"/><polygon class="st3" points="22.35,23.76 22.26,23.49 22.13,23.53 22.35,23.76"/><polygon class="st3" points="22.35,23.76 22.12,23.59 22.21,23.48 22.35,23.76"/><polygon class="st3" points="22.02,23.76 22.25,23.59 22.16,23.48 22.02,23.76"/><polygon class="st3" points="22.02,23.76 22.11,23.49 22.24,23.53 22.02,23.76"/><polygon class="st3" points="30.66,15.72 30.53,16.12 30.73,16.19 30.66,15.72"/><polygon class="st3" points="30.66,15.72 30.78,16.12 30.58,16.19 30.66,15.72"/><polygon class="st3" points="31.06,16.02 30.63,16.02 30.63,16.23 31.06,16.02"/><polygon class="st3" points="31.06,16.02 30.71,16.26 30.59,16.09 31.06,16.02"/><polygon class="st3" points="30.25,16.02 30.6,16.26 30.72,16.09 30.25,16.02"/><polygon class="st3" points="30.25,16.02 30.68,16.02 30.68,16.23 30.25,16.02"/><polygon class="st3" points="30.9,16.49 30.77,16.09 30.57,16.15 30.9,16.49"/><polygon class="st3" points="30.9,16.49 30.56,16.24 30.69,16.07 30.9,16.49"/><polygon class="st3" points="30.41,16.49 30.75,16.24 30.62,16.07 30.41,16.49"/><polygon class="st3" points="30.41,16.49 30.54,16.09 30.74,16.15 30.41,16.49"/><polygon class="st3" points="34.5,22.24 34.37,22.64 34.57,22.7 34.5,22.24"/><polygon class="st3" points="34.5,22.24 34.63,22.64 34.43,22.7 34.5,22.24"/><polygon class="st3" points="34.9,22.53 34.48,22.53 34.48,22.74 34.9,22.53"/><polygon class="st3" points="34.9,22.53 34.56,22.77 34.44,22.61 34.9,22.53"/><polygon class="st3" points="34.1,22.53 34.44,22.77 34.56,22.61 34.1,22.53"/><polygon class="st3" points="34.1,22.53 34.52,22.53 34.52,22.74 34.1,22.53"/><polygon class="st3" points="34.75,23 34.62,22.6 34.42,22.66 34.75,23"/><polygon class="st3" points="34.75,23 34.41,22.75 34.53,22.58 34.75,23"/><polygon class="st3" points="34.25,23 34.59,22.75 34.47,22.58 34.25,23"/><polygon class="st3" points="34.25,23 34.38,22.6 34.58,22.66 34.25,23"/><polygon class="st3" points="35.87,22.47 35.78,22.74 35.91,22.78 35.87,22.47"/><polygon class="st3" points="35.87,22.47 35.95,22.74 35.82,22.78 35.87,22.47"/><polygon class="st3" points="36.13,22.66 35.85,22.66 35.85,22.8 36.13,22.66"/><polygon class="st3" points="36.13,22.66 35.91,22.83 35.82,22.72 36.13,22.66"/><polygon class="st3" points="35.6,22.66 35.83,22.83 35.91,22.72 35.6,22.66"/><polygon class="st3" points="35.6,22.66 35.88,22.66 35.88,22.8 35.6,22.66"/><polygon class="st3" points="36.03,22.98 35.95,22.71 35.81,22.75 36.03,22.98"/><polygon class="st3" points="36.03,22.98 35.81,22.81 35.89,22.7 36.03,22.98"/><polygon class="st3" points="35.7,22.98 35.93,22.81 35.85,22.7 35.7,22.98"/><polygon class="st3" points="35.7,22.98 35.79,22.71 35.92,22.75 35.7,22.98"/><polygon class="st3" points="34.9,23.18 34.79,23.51 34.96,23.57 34.9,23.18"/><polygon class="st3" points="34.9,23.18 35.01,23.51 34.84,23.57 34.9,23.18"/><polygon class="st3" points="35.24,23.42 34.88,23.42 34.88,23.59 35.24,23.42"/><polygon class="st3" points="35.24,23.42 34.95,23.63 34.85,23.48 35.24,23.42"/><polygon class="st3" points="34.57,23.42 34.85,23.63 34.96,23.48 34.57,23.42"/><polygon class="st3" points="34.57,23.42 34.92,23.42 34.92,23.59 34.57,23.42"/><polygon class="st3" points="35.11,23.81 35,23.48 34.83,23.53 35.11,23.81"/><polygon class="st3" points="35.11,23.81 34.83,23.61 34.93,23.46 35.11,23.81"/><polygon class="st3" points="34.7,23.81 34.98,23.61 34.88,23.46 34.7,23.81"/><polygon class="st3" points="34.7,23.81 34.81,23.48 34.97,23.53 34.7,23.81"/><polygon class="st3" points="32.53,25.24 32.42,25.57 32.59,25.63 32.53,25.24"/><polygon class="st3" points="32.53,25.24 32.64,25.57 32.47,25.63 32.53,25.24"/><polygon class="st3" points="32.87,25.48 32.51,25.48 32.51,25.66 32.87,25.48"/><polygon class="st3" points="32.87,25.48 32.58,25.69 32.48,25.55 32.87,25.48"/><polygon class="st3" points="32.2,25.48 32.48,25.69 32.58,25.55 32.2,25.48"/><polygon class="st3" points="32.2,25.48 32.55,25.48 32.55,25.66 32.2,25.48"/><polygon class="st3" points="32.74,25.88 32.63,25.54 32.46,25.6 32.74,25.88"/><polygon class="st3" points="32.74,25.88 32.45,25.67 32.56,25.53 32.74,25.88"/><polygon class="st3" points="32.33,25.88 32.61,25.67 32.51,25.53 32.33,25.88"/><polygon class="st3" points="32.33,25.88 32.43,25.54 32.6,25.6 32.33,25.88"/><polygon class="st3" points="32.52,26.3 32.43,26.57 32.56,26.61 32.52,26.3"/><polygon class="st3" points="32.52,26.3 32.6,26.57 32.47,26.61 32.52,26.3"/><polygon class="st3" points="32.78,26.5 32.5,26.5 32.5,26.64 32.78,26.5"/><polygon class="st3" points="32.78,26.5 32.56,26.66 32.47,26.55 32.78,26.5"/><polygon class="st3" points="32.25,26.5 32.48,26.66 32.56,26.55 32.25,26.5"/><polygon class="st3" points="32.25,26.5 32.53,26.5 32.53,26.64 32.25,26.5"/><polygon class="st3" points="32.68,26.81 32.6,26.54 32.46,26.59 32.68,26.81"/><polygon class="st3" points="32.68,26.81 32.46,26.65 32.54,26.53 32.68,26.81"/><polygon class="st3" points="32.35,26.81 32.58,26.65 32.5,26.53 32.35,26.81"/><polygon class="st3" points="32.35,26.81 32.44,26.54 32.57,26.59 32.35,26.81"/><polygon class="st3" points="33.51,24.53 33.42,24.8 33.56,24.85 33.51,24.53"/><polygon class="st3" points="33.51,24.53 33.6,24.8 33.46,24.85 33.51,24.53"/><polygon class="st3" points="33.78,24.73 33.49,24.73 33.49,24.87 33.78,24.73"/><polygon class="st3" points="33.78,24.73 33.55,24.89 33.47,24.78 33.78,24.73"/><polygon class="st3" points="33.24,24.73 33.47,24.89 33.55,24.78 33.24,24.73"/><polygon class="st3" points="33.24,24.73 33.52,24.73 33.52,24.87 33.24,24.73"/><polygon class="st3" points="33.67,25.04 33.59,24.77 33.45,24.82 33.67,25.04"/><polygon class="st3" points="33.67,25.04 33.45,24.88 33.53,24.76 33.67,25.04"/><polygon class="st3" points="33.34,25.04 33.57,24.88 33.49,24.76 33.34,25.04"/><polygon class="st3" points="33.34,25.04 33.43,24.77 33.56,24.82 33.34,25.04"/><polygon class="st3" points="34.3,23.97 34.19,24.3 34.36,24.36 34.3,23.97"/><polygon class="st3" points="34.3,23.97 34.41,24.3 34.24,24.36 34.3,23.97"/><polygon class="st3" points="34.63,24.21 34.28,24.21 34.28,24.39 34.63,24.21"/><polygon class="st3" points="34.63,24.21 34.35,24.42 34.25,24.28 34.63,24.21"/><polygon class="st3" points="33.97,24.21 34.25,24.42 34.35,24.28 33.97,24.21"/><polygon class="st3" points="33.97,24.21 34.32,24.21 34.32,24.39 33.97,24.21"/><polygon class="st3" points="34.51,24.6 34.4,24.27 34.23,24.32 34.51,24.6"/><polygon class="st3" points="34.51,24.6 34.22,24.4 34.33,24.25 34.51,24.6"/><polygon class="st3" points="34.09,24.6 34.38,24.4 34.27,24.25 34.09,24.6"/><polygon class="st3" points="34.09,24.6 34.2,24.27 34.37,24.32 34.09,24.6"/><polygon class="st3" points="32.49,24.34 32.4,24.61 32.54,24.66 32.49,24.34"/><polygon class="st3" points="32.49,24.34 32.58,24.61 32.44,24.66 32.49,24.34"/><polygon class="st3" points="32.76,24.54 32.48,24.54 32.48,24.68 32.76,24.54"/><polygon class="st3" points="32.76,24.54 32.53,24.71 32.45,24.59 32.76,24.54"/><polygon class="st3" points="32.22,24.54 32.45,24.71 32.53,24.59 32.22,24.54"/><polygon class="st3" points="32.22,24.54 32.51,24.54 32.51,24.68 32.22,24.54"/><polygon class="st3" points="32.66,24.85 32.57,24.59 32.44,24.63 32.66,24.85"/><polygon class="st3" points="32.66,24.85 32.43,24.69 32.51,24.58 32.66,24.85"/><polygon class="st3" points="32.33,24.85 32.55,24.69 32.47,24.58 32.33,24.85"/><polygon class="st3" points="32.33,24.85 32.41,24.59 32.55,24.63 32.33,24.85"/><polygon class="st3" points="23.85,19.25 23.74,19.58 23.91,19.64 23.85,19.25"/><polygon class="st3" points="23.85,19.25 23.96,19.58 23.79,19.64 23.85,19.25"/><polygon class="st3" points="24.18,19.49 23.83,19.49 23.83,19.67 24.18,19.49"/><polygon class="st3" points="24.18,19.49 23.9,19.7 23.79,19.56 24.18,19.49"/><polygon class="st3" points="23.51,19.49 23.8,19.7 23.9,19.56 23.51,19.49"/><polygon class="st3" points="23.51,19.49 23.87,19.49 23.87,19.67 23.51,19.49"/><polygon class="st3" points="24.05,19.89 23.95,19.55 23.78,19.61 24.05,19.89"/><polygon class="st3" points="24.05,19.89 23.77,19.68 23.87,19.54 24.05,19.89"/><polygon class="st3" points="23.64,19.89 23.93,19.68 23.82,19.54 23.64,19.89"/><polygon class="st3" points="23.64,19.89 23.75,19.55 23.92,19.61 23.64,19.89"/><polygon class="st3" points="30.28,18.42 30.19,18.69 30.33,18.73 30.28,18.42"/><polygon class="st3" points="30.28,18.42 30.37,18.69 30.23,18.73 30.28,18.42"/><polygon class="st3" points="30.55,18.62 30.27,18.62 30.27,18.76 30.55,18.62"/><polygon class="st3" points="30.55,18.62 30.32,18.78 30.24,18.67 30.55,18.62"/><polygon class="st3" points="30.01,18.62 30.24,18.78 30.32,18.67 30.01,18.62"/><polygon class="st3" points="30.01,18.62 30.29,18.62 30.29,18.76 30.01,18.62"/><polygon class="st3" points="30.44,18.93 30.36,18.67 30.23,18.71 30.44,18.93"/><polygon class="st3" points="30.44,18.93 30.22,18.77 30.3,18.65 30.44,18.93"/><polygon class="st3" points="30.12,18.93 30.34,18.77 30.26,18.65 30.12,18.93"/><polygon class="st3" points="30.12,18.93 30.2,18.67 30.34,18.71 30.12,18.93"/><polygon class="st3" points="27.6,23.2 27.47,23.6 27.67,23.67 27.6,23.2"/><polygon class="st3" points="27.6,23.2 27.73,23.6 27.53,23.67 27.6,23.2"/><polygon class="st3" points="28,23.49 27.58,23.49 27.58,23.7 28,23.49"/><polygon class="st3" points="28,23.49 27.66,23.74 27.54,23.57 28,23.49"/><polygon class="st3" points="27.2,23.49 27.54,23.74 27.66,23.57 27.2,23.49"/><polygon class="st3" points="27.2,23.49 27.62,23.49 27.62,23.7 27.2,23.49"/><polygon class="st3" points="27.85,23.96 27.72,23.56 27.52,23.63 27.85,23.96"/><polygon class="st3" points="27.85,23.96 27.51,23.72 27.63,23.54 27.85,23.96"/><polygon class="st3" points="27.35,23.96 27.69,23.72 27.57,23.54 27.35,23.96"/><polygon class="st3" points="27.35,23.96 27.48,23.56 27.68,23.63 27.35,23.96"/><polygon class="st3" points="28.74,21.31 28.63,21.65 28.8,21.7 28.74,21.31"/><polygon class="st3" points="28.74,21.31 28.85,21.65 28.68,21.7 28.74,21.31"/><polygon class="st3" points="29.07,21.56 28.72,21.56 28.72,21.73 29.07,21.56"/><polygon class="st3" points="29.07,21.56 28.79,21.76 28.68,21.62 29.07,21.56"/><polygon class="st3" points="28.41,21.56 28.69,21.76 28.79,21.62 28.41,21.56"/><polygon class="st3" points="28.41,21.56 28.76,21.56 28.76,21.73 28.41,21.56"/><polygon class="st3" points="28.95,21.95 28.84,21.62 28.67,21.67 28.95,21.95"/><polygon class="st3" points="28.95,21.95 28.66,21.74 28.76,21.6 28.95,21.95"/><polygon class="st3" points="28.53,21.95 28.82,21.74 28.71,21.6 28.53,21.95"/><polygon class="st3" points="28.53,21.95 28.64,21.62 28.81,21.67 28.53,21.95"/><polygon class="st3" points="27.6,20.43 27.49,20.76 27.66,20.82 27.6,20.43"/><polygon class="st3" points="27.6,20.43 27.71,20.76 27.54,20.82 27.6,20.43"/><polygon class="st3" points="27.93,20.67 27.58,20.67 27.58,20.85 27.93,20.67"/><polygon class="st3" points="27.93,20.67 27.65,20.88 27.55,20.74 27.93,20.67"/><polygon class="st3" points="27.27,20.67 27.55,20.88 27.65,20.74 27.27,20.67"/><polygon class="st3" points="27.27,20.67 27.62,20.67 27.62,20.85 27.27,20.67"/><polygon class="st3" points="27.81,21.07 27.7,20.73 27.53,20.79 27.81,21.07"/><polygon class="st3" points="27.81,21.07 27.52,20.86 27.63,20.72 27.81,21.07"/><polygon class="st3" points="27.39,21.07 27.68,20.86 27.57,20.72 27.39,21.07"/><polygon class="st3" points="27.39,21.07 27.5,20.73 27.67,20.79 27.39,21.07"/><polygon class="st3" points="26.61,21.38 26.52,21.65 26.66,21.7 26.61,21.38"/><polygon class="st3" points="26.61,21.38 26.7,21.65 26.56,21.7 26.61,21.38"/><polygon class="st3" points="26.88,21.58 26.59,21.58 26.59,21.72 26.88,21.58"/><polygon class="st3" points="26.88,21.58 26.65,21.74 26.56,21.63 26.88,21.58"/><polygon class="st3" points="26.34,21.58 26.57,21.74 26.65,21.63 26.34,21.58"/><polygon class="st3" points="26.34,21.58 26.62,21.58 26.62,21.72 26.34,21.58"/><polygon class="st3" points="26.77,21.89 26.69,21.63 26.55,21.67 26.77,21.89"/><polygon class="st3" points="26.77,21.89 26.55,21.73 26.63,21.61 26.77,21.89"/><polygon class="st3" points="26.44,21.89 26.67,21.73 26.59,21.61 26.44,21.89"/><polygon class="st3" points="26.44,21.89 26.53,21.63 26.66,21.67 26.44,21.89"/><polygon class="st3" points="27.1,22.15 27.04,22.34 27.14,22.37 27.1,22.15"/><polygon class="st3" points="27.1,22.15 27.17,22.34 27.07,22.37 27.1,22.15"/><polygon class="st3" points="27.29,22.29 27.09,22.29 27.09,22.39 27.29,22.29"/><polygon class="st3" points="27.29,22.29 27.13,22.4 27.07,22.32 27.29,22.29"/><polygon class="st3" points="26.91,22.29 27.08,22.4 27.13,22.32 26.91,22.29"/><polygon class="st3" points="26.91,22.29 27.11,22.29 27.11,22.39 26.91,22.29"/><polygon class="st3" points="27.22,22.51 27.16,22.32 27.06,22.35 27.22,22.51"/><polygon class="st3" points="27.22,22.51 27.06,22.39 27.12,22.31 27.22,22.51"/><polygon class="st3" points="26.99,22.51 27.15,22.39 27.09,22.31 26.99,22.51"/><polygon class="st3" points="26.99,22.51 27.05,22.32 27.14,22.35 26.99,22.51"/><polygon class="st3" points="30.55,25.48 30.44,25.82 30.61,25.87 30.55,25.48"/><polygon class="st3" points="30.55,25.48 30.66,25.82 30.49,25.87 30.55,25.48"/><polygon class="st3" points="30.88,25.72 30.53,25.72 30.53,25.9 30.88,25.72"/><polygon class="st3" points="30.88,25.72 30.6,25.93 30.49,25.79 30.88,25.72"/><polygon class="st3" points="30.21,25.72 30.5,25.93 30.6,25.79 30.21,25.72"/><polygon class="st3" points="30.21,25.72 30.57,25.72 30.57,25.9 30.21,25.72"/><polygon class="st3" points="30.75,26.12 30.65,25.78 30.48,25.84 30.75,26.12"/><polygon class="st3" points="30.75,26.12 30.47,25.91 30.57,25.77 30.75,26.12"/><polygon class="st3" points="30.34,26.12 30.63,25.91 30.52,25.77 30.34,26.12"/><polygon class="st3" points="30.34,26.12 30.45,25.78 30.62,25.84 30.34,26.12"/><polygon class="st3" points="31.39,24.68 31.3,24.95 31.44,24.99 31.39,24.68"/><polygon class="st3" points="31.39,24.68 31.48,24.95 31.35,24.99 31.39,24.68"/><polygon class="st3" points="31.66,24.87 31.38,24.87 31.38,25.02 31.66,24.87"/><polygon class="st3" points="31.66,24.87 31.43,25.04 31.35,24.93 31.66,24.87"/><polygon class="st3" points="31.12,24.87 31.35,25.04 31.44,24.93 31.12,24.87"/><polygon class="st3" points="31.12,24.87 31.41,24.87 31.41,25.02 31.12,24.87"/><polygon class="st3" points="31.56,25.19 31.47,24.92 31.34,24.97 31.56,25.19"/><polygon class="st3" points="31.56,25.19 31.33,25.03 31.41,24.91 31.56,25.19"/><polygon class="st3" points="31.23,25.19 31.45,25.03 31.37,24.91 31.23,25.19"/><polygon class="st3" points="31.23,25.19 31.31,24.92 31.45,24.97 31.23,25.19"/><polygon class="st3" points="29.77,24.44 29.68,24.71 29.82,24.75 29.77,24.44"/><polygon class="st3" points="29.77,24.44 29.86,24.71 29.72,24.75 29.77,24.44"/><polygon class="st3" points="30.04,24.64 29.76,24.64 29.76,24.77 30.04,24.64"/><polygon class="st3" points="30.04,24.64 29.81,24.8 29.73,24.68 30.04,24.64"/><polygon class="st3" points="29.5,24.64 29.73,24.8 29.81,24.68 29.5,24.64"/><polygon class="st3" points="29.5,24.64 29.78,24.64 29.78,24.77 29.5,24.64"/><polygon class="st3" points="29.93,24.95 29.85,24.68 29.71,24.73 29.93,24.95"/><polygon class="st3" points="29.93,24.95 29.71,24.78 29.79,24.67 29.93,24.95"/><polygon class="st3" points="29.61,24.95 29.83,24.78 29.75,24.67 29.61,24.95"/><polygon class="st3" points="29.61,24.95 29.69,24.68 29.82,24.73 29.61,24.95"/><polygon class="st3" points="23.65,24 23.52,24.41 23.72,24.47 23.65,24"/><polygon class="st3" points="23.65,24 23.78,24.41 23.58,24.47 23.65,24"/><polygon class="st3" points="24.05,24.3 23.63,24.3 23.63,24.51 24.05,24.3"/><polygon class="st3" points="24.05,24.3 23.71,24.54 23.58,24.37 24.05,24.3"/><polygon class="st3" points="23.25,24.3 23.59,24.54 23.71,24.37 23.25,24.3"/><polygon class="st3" points="23.25,24.3 23.67,24.3 23.67,24.51 23.25,24.3"/><polygon class="st3" points="23.9,24.77 23.76,24.36 23.56,24.43 23.9,24.77"/><polygon class="st3" points="23.9,24.77 23.55,24.52 23.68,24.35 23.9,24.77"/><polygon class="st3" points="23.4,24.77 23.74,24.52 23.62,24.35 23.4,24.77"/><polygon class="st3" points="23.4,24.77 23.53,24.36 23.73,24.43 23.4,24.77"/><polygon class="st3" points="27.6,26.76 27.56,26.9 27.62,26.92 27.6,26.76"/><polygon class="st3" points="27.6,26.76 27.64,26.9 27.58,26.92 27.6,26.76"/><polygon class="st3" points="27.73,26.86 27.59,26.86 27.59,26.93 27.73,26.86"/><polygon class="st3" points="27.73,26.86 27.62,26.94 27.58,26.89 27.73,26.86"/><polygon class="st3" points="27.47,26.86 27.58,26.94 27.62,26.89 27.47,26.86"/><polygon class="st3" points="27.47,26.86 27.61,26.86 27.61,26.93 27.47,26.86"/><polygon class="st3" points="27.68,27.02 27.64,26.89 27.57,26.91 27.68,27.02"/><polygon class="st3" points="27.68,27.02 27.57,26.94 27.61,26.88 27.68,27.02"/><polygon class="st3" points="27.52,27.02 27.63,26.94 27.59,26.88 27.52,27.02"/><polygon class="st3" points="27.52,27.02 27.56,26.89 27.63,26.91 27.52,27.02"/></g></svg>